<svg width="70" height="70" viewBox="0 0 70 70" fill="none" xmlns="http://www.w3.org/2000/svg">
<path d="M39.6664 65.3285C53.8415 65.3285 65.3328 53.838 65.3328 39.6637C65.3328 25.4894 53.8415 13.9989 39.6664 13.9989C25.4912 13.9989 14 25.4894 14 39.6637C14.016 53.8313 25.4978 65.3125 39.6664 65.3285ZM19.8333 38.4971H16.3928C17.0009 26.5494 26.5513 16.9996 38.4997 16.3915V19.8318C38.4997 20.476 39.0221 20.9984 39.6664 20.9984C40.3107 20.9984 40.833 20.476 40.833 19.8318V16.3915C52.7815 16.9996 62.3318 26.5494 62.94 38.4971H58.3328C57.6886 38.4971 57.1662 39.0195 57.1662 39.6637C57.1662 40.3079 57.6886 40.8303 58.3328 40.8303H62.94C62.3318 52.7778 52.7815 62.3278 40.833 62.9359V59.4956C40.833 58.8514 40.3107 58.329 39.6664 58.329C39.0221 58.329 38.4997 58.8514 38.4997 59.4956V62.9359C26.5514 62.3278 17.0009 52.778 16.3928 40.8303H19.8333C20.4776 40.8303 20.9999 40.3079 20.9999 39.6637C20.9999 39.0195 20.4776 38.4971 19.8333 38.4971Z" fill="white"/>
<path d="M65.9335 24.5183C65.5857 23.9158 65.2172 23.3255 64.8287 22.7483L67.7092 19.868C68.1646 19.4125 68.1646 18.674 67.7092 18.2185L61.1176 11.6273C60.662 11.1719 59.9235 11.1719 59.4679 11.6273L56.5828 14.5029C51.9159 11.3523 46.46 9.57135 40.833 9.3618V2.33316H48.9996C49.6438 2.33316 50.1662 1.81082 50.1662 1.16658C50.1662 0.522336 49.6438 0 48.9996 0H30.3331C29.6888 0 29.1665 0.522336 29.1665 1.16658C29.1665 1.81082 29.6888 2.33316 30.3331 2.33316H38.4997V9.3723C28.0949 9.76952 18.6228 15.4814 13.4166 24.4982H7.00005C6.35577 24.4982 5.8334 25.0205 5.8334 25.6647C5.8334 26.309 6.35577 26.8313 7.00005 26.8313H14C14.0303 26.8313 14.056 26.8162 14.0863 26.8138C14.5067 26.8192 14.8967 26.5958 15.1048 26.2305C22.5275 12.6656 39.5419 7.68572 53.1079 15.1078C66.6739 22.5299 71.6538 39.5435 64.2312 53.1085C56.8086 66.6735 39.7941 71.6534 26.2281 64.2313C21.5335 61.6628 17.6733 57.8028 15.1046 53.1085C14.8986 52.7418 14.5092 52.5161 14.0885 52.5194C14.0582 52.5194 14.0313 52.5019 13.9998 52.5019H6.9999C6.35562 52.5019 5.83325 53.0242 5.83325 53.6685C5.83325 54.3127 6.35562 54.8351 6.9999 54.8351H13.4165C21.7888 69.3362 40.3322 74.3053 54.8343 65.9335C69.3365 57.5617 74.3057 39.0195 65.9335 24.5183ZM58.4893 15.9049L60.2926 14.1016L65.2346 19.0432L63.4286 20.8491C61.9761 19.0182 60.3189 17.3593 58.4893 15.9049Z" fill="white"/>
<path d="M11.6665 39.6638C11.6665 39.0195 11.1441 38.4971 10.4999 38.4971H1.16665C0.522368 38.4971 0 39.0195 0 39.6638C0 40.3081 0.522368 40.8305 1.16665 40.8305H10.4999C11.1441 40.8305 11.6665 40.3081 11.6665 39.6638Z" fill="white"/>
<path d="M3.50015 33.8311H11.6667C12.311 33.8311 12.8334 33.3087 12.8334 32.6643C12.8334 32.02 12.311 31.4976 11.6667 31.4976H3.50015C2.85587 31.4976 2.3335 32.02 2.3335 32.6643C2.3335 33.3087 2.85572 33.8311 3.50015 33.8311Z" fill="white"/>
<path d="M12.8334 46.6633C12.8334 46.019 12.311 45.4967 11.6667 45.4967H3.50015C2.85587 45.4967 2.3335 46.019 2.3335 46.6633C2.3335 47.3076 2.85587 47.83 3.50015 47.83H11.6667C12.311 47.83 12.8334 47.3076 12.8334 46.6633Z" fill="white"/>
<path d="M36.5079 47.488C36.9635 47.9434 37.702 47.9434 38.1576 47.488L54.3741 31.2723C54.8218 30.8089 54.809 30.0704 54.3455 29.6228C53.8934 29.1862 53.1767 29.1862 52.7244 29.6228L37.3328 45.0137L30.3912 38.0724C29.9277 37.6249 29.1891 37.6376 28.7415 38.101C28.3049 38.5531 28.3049 39.2698 28.7415 39.722L36.5079 47.488Z" fill="white"/>
</svg>
