<svg width="70" height="70" viewBox="0 0 70 70" fill="none" xmlns="http://www.w3.org/2000/svg">
<g clip-path="url(#clip0)">
<path d="M8.75 39.3464C9.35402 39.3464 9.84375 39.8362 9.84375 40.4402V48.1041H11.5839C12.0128 44.3106 15.4357 41.583 19.2291 42.0118C22.4319 42.3738 24.9592 44.9013 25.3214 48.1041H48.125V16.3853H9.84375V19.8252C9.84375 20.4292 9.35402 20.9189 8.75 20.9189C8.14598 20.9189 7.65625 20.4292 7.65625 19.8252V15.2916C7.65625 14.6876 8.14598 14.1978 8.75 14.1978H49.2188C49.8228 14.1978 50.3125 14.6876 50.3125 15.2916V16.3853H62.8381C65.5838 16.3889 67.8089 18.6139 67.8125 21.3597V22.9478C67.8125 23.5519 67.3228 24.0416 66.7188 24.0416H65.4467L66.2812 34.0658C68.4653 34.6343 69.9923 36.6028 70 38.8597V48.1041C70 48.7081 69.5103 49.1978 68.9062 49.1978H66.6914C66.3916 53.1091 62.9777 56.0368 59.0665 55.737C55.5719 55.4691 52.7953 52.6924 52.5273 49.1978C52.5175 49.1978 52.5098 49.2033 52.5 49.2033H50.3125C50.3125 49.8073 49.8228 50.2971 49.2188 50.2971H25.2219C24.4427 54.0356 20.7803 56.4346 17.0417 55.6555C14.3488 55.0943 12.2447 52.99 11.6834 50.2971H8.75C8.14598 50.2971 7.65625 49.8073 7.65625 49.2033V40.4402C7.65625 39.836 8.14598 39.3464 8.75 39.3464ZM59.6094 53.5729C62.3276 53.5729 64.5312 51.3692 64.5312 48.651C64.5312 45.9327 62.3276 43.7291 59.6094 43.7291C56.8911 43.7291 54.6875 45.9327 54.6875 48.651C54.6905 51.368 56.8924 53.5698 59.6094 53.5729ZM50.3125 47.0103H52.5C52.5641 47.017 52.6276 47.0298 52.6892 47.0486C53.5689 43.2269 57.38 40.842 61.2016 41.7217C63.8367 42.3281 65.8986 44.3787 66.5197 47.0103H67.8125V38.8597C67.8107 37.3214 66.564 36.0746 65.0256 36.0728H50.3125V47.0103ZM50.3125 33.8853H64.0719L63.2516 24.0416H50.3125V33.8853ZM50.3125 21.8541H65.625V21.3597C65.6232 19.8214 64.3765 18.5746 62.8381 18.5728H50.3125V21.8541ZM13.7327 49.1541C13.8733 51.6563 15.9455 53.6121 18.4516 53.6079H18.4527C20.7475 53.6028 22.7069 51.95 23.0989 49.6889C22.9072 49.354 22.9291 48.9378 23.1547 48.6247C23.0085 46.023 20.7808 44.0322 18.1789 44.1784C15.5772 44.3245 13.5864 46.5522 13.7327 49.1541Z" fill="white"/>
<path d="M9.84375 22.9478H25.1562C25.7603 22.9478 26.25 23.4376 26.25 24.0416C26.25 24.6456 25.7603 25.1353 25.1562 25.1353H9.84375C9.23973 25.1353 8.75 24.6456 8.75 24.0416C8.75 23.4376 9.23973 22.9478 9.84375 22.9478Z" fill="white"/>
<path d="M7.65625 34.9791H31.7188C32.3228 34.9791 32.8125 35.4688 32.8125 36.0728C32.8125 36.6769 32.3228 37.1666 31.7188 37.1666H7.65625C7.05223 37.1666 6.5625 36.6769 6.5625 36.0728C6.5625 35.4688 7.05223 34.9791 7.65625 34.9791Z" fill="white"/>
<path d="M9.84375 28.4166H21.875C22.479 28.4166 22.9688 28.9063 22.9688 29.5103C22.9688 30.1144 22.479 30.6041 21.875 30.6041H9.84375C9.23973 30.6041 8.75 30.1144 8.75 29.5103C8.75 28.9063 9.23973 28.4166 9.84375 28.4166Z" fill="white"/>
<path d="M5.46875 25.1353H3.28125C2.67723 25.1353 2.1875 24.6456 2.1875 24.0416C2.1875 23.4376 2.67723 22.9478 3.28125 22.9478H5.46875C6.07277 22.9478 6.5625 23.4376 6.5625 24.0416C6.5625 24.6456 6.07277 25.1353 5.46875 25.1353Z" fill="white"/>
<path d="M2.1875 34.9791H4.375C4.97902 34.9791 5.46875 35.4688 5.46875 36.0728C5.46875 36.6769 4.97902 37.1666 4.375 37.1666H2.1875C1.58348 37.1666 1.09375 36.6769 1.09375 36.0728C1.09375 35.4688 1.58348 34.9791 2.1875 34.9791Z" fill="white"/>
<path d="M1.09375 28.4166H5.46875C6.07277 28.4166 6.5625 28.9063 6.5625 29.5103C6.5625 30.1144 6.07277 30.6041 5.46875 30.6041H1.09375C0.489727 30.6041 0 30.1144 0 29.5103C0 28.9063 0.489727 28.4166 1.09375 28.4166Z" fill="white"/>
</g>
<defs>
<clipPath id="clip0">
<rect width="70" height="70" fill="white" transform="matrix(-1 0 0 1 70 0)"/>
</clipPath>
</defs>
</svg>
