<svg width="70" height="42" viewBox="0 0 70 42" fill="none" xmlns="http://www.w3.org/2000/svg">
<path d="M55.2632 28.0251C55.6057 28.4477 55.4805 29.0264 54.9835 29.3176C54.4865 29.6088 53.806 29.5024 53.4635 29.0798C53.4562 29.071 53.4493 29.062 53.4424 29.0529C49.6435 24.1639 43.2118 21.223 36.3201 21.2239C35.7166 21.2239 35.2272 20.8079 35.2272 20.2947C35.2272 19.7815 35.7166 19.3654 36.3201 19.3654C43.9443 19.3638 51.0601 22.6168 55.2632 28.0251Z" fill="white"/>
<path d="M1.12041 39.8091H7.67775V38.6866C7.65234 32.6662 10.5397 26.9019 15.6624 22.7459C16.0868 22.3809 16.7788 22.3777 17.208 22.7385C17.6372 23.0994 17.6411 23.6877 17.2168 24.0527C17.2039 24.0637 17.1908 24.0745 17.1773 24.085C12.4854 27.8921 9.84071 33.1721 9.86366 38.6866V39.8091H60.1364V38.6866C60.1219 27.5076 49.4675 18.4483 36.3202 18.436H33.6798C31.6496 18.4348 29.6276 18.6534 27.6623 19.0864C27.084 19.2336 26.475 18.9544 26.3019 18.4627C26.1289 17.971 26.4573 17.4531 27.0355 17.306C27.062 17.2992 27.089 17.2933 27.116 17.2883C28.6254 16.9573 30.1668 16.7424 31.7214 16.6462V13.7896C31.7214 13.2764 32.2108 12.8604 32.8143 12.8604H37.1859C37.7894 12.8604 38.2788 13.2764 38.2788 13.7896V16.6462C51.8316 17.5288 62.3044 27.129 62.3223 38.6866V39.8091H68.8795C69.4831 39.8091 69.9724 40.2252 69.9724 40.7384C69.9724 41.2516 69.4831 41.6677 68.8795 41.6677H1.12041C0.516869 41.6677 0.0275269 41.2516 0.0275269 40.7384C0.0275269 40.2252 0.516869 39.8091 1.12041 39.8091ZM36.0929 14.7189H33.9071V16.5774H36.0929V14.7189Z" fill="white"/>
<path d="M23.706 12.157C22.6886 12.9292 21.8853 13.5388 21.8853 14.7831C21.8853 16.0274 22.6886 16.637 23.706 17.4139C25.2527 18.3329 26.1984 19.8191 26.2568 21.4228C26.2568 21.936 25.7675 22.3521 25.1639 22.3521C24.5604 22.3521 24.0711 21.936 24.0711 21.4228C24.0711 20.1785 23.2678 19.5689 22.2503 18.7966C20.7026 17.8762 19.757 16.3883 19.6995 14.7831C19.757 13.1781 20.7026 11.6906 22.2503 10.7705C23.2678 9.99827 24.0711 9.38866 24.0711 8.14529C24.0711 6.90192 23.2678 6.29325 22.2503 5.52102C20.7026 4.60185 19.7569 3.11478 19.6995 1.51027C19.6995 0.997077 20.1888 0.580994 20.7924 0.580994C21.3959 0.580994 21.8853 0.997077 21.8853 1.51027C21.8853 2.75271 22.6886 3.36138 23.706 4.13361C25.254 5.05313 26.1997 6.54055 26.2568 8.14529C26.1992 9.74992 25.2536 11.2372 23.706 12.157Z" fill="white"/>
<path d="M17.1487 12.157C16.1312 12.9292 15.3279 13.5388 15.3279 14.7831C15.3279 16.0274 16.1312 16.6417 17.1487 17.4102C18.6966 18.33 19.6424 19.8177 19.6995 21.4228C19.6995 21.936 19.2101 22.3521 18.6066 22.3521C18.003 22.3521 17.5137 21.936 17.5137 21.4228C17.5137 20.1785 16.7104 19.5689 15.6929 18.7966C14.1453 17.8762 13.1996 16.3883 13.1421 14.7831C13.1996 13.1781 14.1453 11.6906 15.6929 10.7705C16.7104 9.99827 17.5137 9.38866 17.5137 8.14529C17.5137 6.90192 16.7104 6.29325 15.6929 5.52102C14.1453 4.60185 13.1995 3.11478 13.1421 1.51027C13.1421 0.997077 13.6315 0.580994 14.235 0.580994C14.8386 0.580994 15.3279 0.997077 15.3279 1.51027C15.3279 2.75271 16.1312 3.36138 17.1487 4.13361C18.6966 5.05313 19.6424 6.54055 19.6995 8.14529C19.6418 9.74992 18.6962 11.2372 17.1487 12.157Z" fill="white"/>
<path d="M10.5914 12.157C9.57394 12.9292 8.77067 13.5388 8.77067 14.7831C8.77067 16.0274 9.57394 16.6417 10.5914 17.4102C12.1394 18.33 13.0851 19.8177 13.1422 21.4228C13.1422 21.936 12.6529 22.3521 12.0493 22.3521C11.4458 22.3521 10.9564 21.936 10.9564 21.4228C10.9564 20.1785 10.1532 19.5689 9.13569 18.7966C7.58803 17.8762 6.64241 16.3883 6.5849 14.7831C6.64241 13.1781 7.58803 11.6906 9.13569 10.7705C10.1532 9.99827 10.9564 9.38866 10.9564 8.14529C10.9564 6.90192 10.1532 6.29325 9.13569 5.52102C7.58803 4.60185 6.64228 3.11478 6.5849 1.51027C6.5849 0.997077 7.07424 0.580994 7.67778 0.580994C8.28133 0.580994 8.77067 0.997077 8.77067 1.51027C8.77067 2.75271 9.57394 3.36138 10.5914 4.13361C12.1394 5.05313 13.0851 6.54055 13.1422 8.14529C13.0846 9.74992 12.1389 11.2372 10.5914 12.157Z" fill="white"/>
</svg>
