<svg width="61" height="62" viewBox="0 0 61 62" fill="none" xmlns="http://www.w3.org/2000/svg">
<g clip-path="url(#clip0)">
<path d="M17.8076 39.728C17.3001 39.728 16.8048 39.8359 16.3478 40.0434C15.8909 39.8359 15.3956 39.728 14.8881 39.728C12.9058 39.728 11.2935 41.3668 11.2935 43.3816C11.2935 44.4553 11.7605 46.2564 14.8881 46.2564C15.4451 46.2564 15.9263 46.203 16.3478 46.0931C16.7694 46.203 17.2506 46.2564 17.8076 46.2564C20.9352 46.2564 21.4022 44.4553 21.4022 43.3816C21.4022 41.3668 19.7899 39.728 17.8076 39.728ZM17.8076 44.2015C17.3375 44.2015 16.9614 44.1512 16.6885 44.0525C16.5793 44.0125 16.4631 43.9919 16.3489 43.9919C16.2346 43.9919 16.1184 44.0125 16.0092 44.0525C15.7363 44.1512 15.3592 44.2015 14.8902 44.2015C13.3152 44.2015 13.3152 43.7083 13.3152 43.3816C13.3152 42.5001 14.0208 41.7829 14.8881 41.7829C15.2056 41.7829 15.5129 41.8795 15.7757 42.0634C16.1204 42.3038 16.5753 42.3038 16.92 42.0634C17.1828 41.8795 17.4901 41.7829 17.8076 41.7829C18.6749 41.7829 19.3805 42.5001 19.3805 43.3816C19.3805 43.7083 19.3805 44.2015 17.8076 44.2015Z" fill="white"/>
<path d="M60.0581 50.698C60.5574 49.9439 60.8263 49.0582 60.8263 48.1294C60.8263 45.9903 59.3828 44.2025 57.4379 43.6775C57.9079 42.2688 57.8675 40.7688 57.3247 39.4516C56.7626 38.0892 55.7376 37.0926 54.4376 36.6446C54.2061 36.5644 53.9696 36.5038 53.729 36.4627C53.4722 31.1292 50.9096 27.0708 47.6849 27.0708C46.3374 27.0708 45.1092 27.7859 44.1125 28.9993C42.2848 27.7387 40.1822 27.0667 37.9937 27.0667C34.2746 27.0667 30.78 29.0353 28.6441 32.3314C28.6016 32.3971 28.5864 32.4711 28.5612 32.542C25.5447 29.7864 21.5699 28.0942 17.205 28.0942C7.81392 28.0942 0.173706 35.8596 0.173706 45.4046C0.173706 50.3477 2.22983 53.8246 6.27536 55.8353H1.18458C0.626579 55.8353 0.173706 56.2956 0.173706 56.8627V58.9176C0.173706 60.617 1.54951 62 3.24172 62H57.7583C59.4505 62 60.8263 60.617 60.8263 58.9176V56.8627C60.8263 56.3706 60.4796 55.9791 60.0257 55.8784C60.5291 55.1346 60.8263 54.2355 60.8263 53.2666C60.8263 52.3378 60.5574 51.4522 60.0581 50.698ZM43.6414 37.3433C43.6414 32.5009 45.7724 29.1257 47.6849 29.1257C49.5975 29.1257 51.7284 32.5029 51.7264 37.4306C51.7264 37.7131 51.8407 37.9834 52.0418 38.1775C52.244 38.3717 52.5179 38.4734 52.7929 38.457C53.1406 38.4365 53.4712 38.4827 53.7866 38.5916C54.5306 38.8485 55.125 39.4362 55.4586 40.2468C55.8114 41.1006 55.8336 42.0849 55.5213 43.0179C55.4576 43.21 55.4697 43.4021 55.5142 43.585C53.5339 43.9271 52.0044 45.569 51.778 47.6167H48.6958V45.0481L52.335 42.274C52.7818 41.9339 52.8728 41.2897 52.5371 40.8356C52.2025 40.3824 51.5687 40.2879 51.1229 40.6301L48.6958 42.4784V37.3412C48.6958 36.774 48.244 36.3137 47.6849 36.3137C47.1259 36.3137 46.6741 36.774 46.6741 37.3412V42.4784L44.248 40.629C43.8022 40.2869 43.1683 40.3814 42.8337 40.8345C42.4981 41.2887 42.5891 41.9329 43.0359 42.2729L46.6751 45.0471V47.6157H45.6612C45.6511 46.6334 45.182 45.7087 44.441 45.1734L39.5413 41.1633C39.6636 40.028 40.2793 39.0899 41.2052 38.6738C41.6005 38.4971 42.0483 38.4313 42.5386 38.4786C42.8196 38.5074 43.1036 38.3543 43.3139 38.159C43.5232 37.9649 43.6414 37.633 43.6414 37.3433ZM41.9533 48.1294C40.347 45.3008 37.3528 43.5388 34.1291 43.5162C33.9259 41.6236 33.4114 39.8287 32.6552 38.1683L43.2179 46.8102C43.4837 47.0023 43.6414 47.3146 43.6414 47.6455V48.6431V52.7529V52.9112C43.6414 53.3016 43.419 53.6437 43.0956 53.8174C43.3179 51.8714 42.9419 49.8699 41.9533 48.1294ZM36.1953 50.322L39.1622 55.5445C37.4094 55.04 35.8789 53.8739 34.9509 52.2392C33.7945 50.2049 33.7035 47.7102 34.677 45.5937C36.9676 45.7961 39.047 47.1225 40.2024 49.1569C41.1314 50.7926 41.3609 52.7231 40.9131 54.5171L37.9461 49.2945C37.6661 48.8024 37.0465 48.6339 36.5653 48.9185C36.0811 49.2021 35.9153 49.8309 36.1953 50.322ZM35.3866 55.8353H33.5266C33.6974 55.3442 33.8268 54.8428 33.9138 54.3342C34.3474 54.8962 34.8448 55.3945 35.3866 55.8353ZM37.9937 35.2863C36.6462 35.2863 35.427 36.0456 34.7356 37.2333L33.2931 36.0528C34.3343 34.2866 36.076 33.2314 37.9937 33.2314C39.418 33.2314 40.7564 33.8181 41.7946 34.8774C41.7228 35.386 41.6672 35.9069 41.6409 36.4442C41.3629 36.4802 41.096 36.549 40.8332 36.6333C40.1044 35.7795 39.0763 35.2863 37.9937 35.2863ZM39.048 37.7193C38.4849 38.268 38.0563 38.9553 37.7945 39.7352L36.3479 38.5526C36.6431 37.8282 37.279 37.3412 37.9937 37.3412C38.3788 37.3412 38.7417 37.4737 39.048 37.7193ZM45.5247 53.7804H51.78C51.8629 54.5325 52.1035 55.2363 52.4987 55.8353H43.5565C44.5047 55.5219 45.2396 54.7462 45.5247 53.7804ZM45.6632 51.7255V49.6706H51.7284V51.7255H45.6632ZM30.3342 33.4605C32.0932 30.7439 34.957 29.1216 37.9937 29.1216C39.79 29.1216 41.5156 29.6795 43.0187 30.7275C42.7367 31.3008 42.489 31.9255 42.2869 32.5995C41.0324 31.6738 39.5514 31.1765 37.9937 31.1765C35.4836 31.1765 33.1283 32.5451 31.7151 34.7613L30.2493 33.5612C30.2776 33.5273 30.31 33.4985 30.3342 33.4605ZM2.19546 45.4046C2.19546 36.9929 8.92891 30.1491 17.205 30.1491C25.481 30.1491 32.2145 36.9929 32.2145 45.4046C32.2145 45.6142 32.2913 45.7971 32.3964 45.9594C32.2883 46.3221 32.2044 46.6879 32.1407 47.0588C31.5463 46.2872 30.8296 45.6358 30.0391 45.0964C30.0714 44.9957 30.1017 44.894 30.1017 44.782C30.1017 37.5539 24.3165 31.6738 17.205 31.6738C10.0934 31.6738 4.30819 37.5539 4.30819 44.782C4.30819 51.1049 8.64688 54.3105 17.205 54.3105C20.0071 54.3105 22.2856 53.9889 24.1456 53.3334C24.7097 54.3064 25.4426 55.1469 26.2897 55.8353H17.205C6.96478 55.8353 2.19546 52.5207 2.19546 45.4046ZM27.0984 50.322L30.0653 55.5445C28.3125 55.04 26.782 53.8739 25.854 52.2392C24.6966 50.2049 24.6056 47.7112 25.5791 45.5937C27.8697 45.7961 29.9491 47.1225 31.1045 49.1569C32.0335 50.7926 32.263 52.7231 31.8162 54.5181L28.8493 49.2945C28.5692 48.8024 27.9526 48.6329 27.4684 48.9185C26.9842 49.2021 26.8194 49.8309 27.0984 50.322ZM23.3238 51.4224C21.7084 51.9649 19.6735 52.2556 17.204 52.2556C7.45607 52.2556 6.32894 47.9897 6.32894 44.782C6.32894 38.6872 11.2074 33.7287 17.204 33.7287C22.9639 33.7287 27.6797 38.307 28.0436 44.0689C27.0731 43.7134 26.0431 43.5059 24.9816 43.5059H24.9806C24.6187 43.5059 24.2852 43.7052 24.1042 44.0237C22.8214 46.2903 22.5727 48.9842 23.3238 51.4224ZM58.8046 58.9176C58.8046 59.4837 58.3345 59.9451 57.7583 59.9451H3.24172C2.66451 59.9451 2.19546 59.4837 2.19546 58.9176V57.8902H58.8046V58.9176ZM58.0414 51.4327C58.5327 51.9217 58.8046 52.5731 58.8046 53.2666C58.8046 54.6825 57.6714 55.8353 56.2774 55.8353C54.8834 55.8353 53.7502 54.6825 53.7502 53.2666C53.7502 52.5731 54.0221 51.9217 54.5134 51.4327C54.7075 51.2395 54.8177 50.9744 54.8177 50.698C54.8177 50.4216 54.7085 50.1566 54.5134 49.9634C54.0221 49.4743 53.7502 48.8229 53.7502 48.1294C53.7502 46.7136 54.8834 45.5608 56.2774 45.5608C57.6714 45.5608 58.8046 46.7136 58.8046 48.1294C58.8046 48.8229 58.5327 49.4743 58.0414 49.9634C57.8473 50.1566 57.7371 50.4216 57.7371 50.698C57.7371 50.9744 57.8463 51.2395 58.0414 51.4327Z" fill="white"/>
<path d="M25.2344 2.57029C22.2371 -0.694947 17.1858 -0.872696 13.9732 2.17164C12.0778 3.96967 10.983 6.40986 10.8941 9.04321C10.8041 11.6766 11.728 14.1887 13.5041 16.1234L18.6485 21.6099C18.8476 21.8226 19.1135 21.9295 19.3804 21.9295C19.6311 21.9295 19.8818 21.835 20.0779 21.6459C20.4822 21.2544 20.4974 20.6041 20.1122 20.1931L14.975 14.7147C13.5749 13.189 12.843 11.2009 12.9138 9.11514C12.9856 7.03044 13.8509 5.09781 15.352 3.67479C17.7508 1.40208 21.5204 1.53564 23.7554 3.97173C24.5854 4.87588 25.019 6.05436 24.9766 7.28936C24.9341 8.52435 24.4216 9.66996 23.531 10.5135C22.1431 11.8297 19.9626 11.7536 18.6667 10.3419C18.2856 9.92785 17.6467 9.90422 17.2383 10.2916C16.8299 10.6779 16.8077 11.3283 17.1888 11.7433C19.2429 13.9822 22.7072 14.1044 24.9099 12.0167C26.1957 10.7991 26.9367 9.14596 26.9983 7.36231C27.059 5.57763 26.4323 3.87617 25.2344 2.57029Z" fill="white"/>
<path d="M24.1386 24.2854L23.1277 23.258C22.7324 22.8562 22.0935 22.8562 21.6983 23.258C21.303 23.6597 21.303 24.309 21.6983 24.7108L22.7092 25.7382C22.9063 25.9386 23.1651 26.0393 23.4239 26.0393C23.6826 26.0393 23.9414 25.9386 24.1386 25.7382C24.5338 25.3365 24.5338 24.6871 24.1386 24.2854Z" fill="white"/>
<path d="M44.244 12.8684C44.1661 10.5834 43.2169 8.46682 41.5722 6.90716C40.2166 5.62182 38.4365 4.94165 36.5977 5.01562C34.7448 5.08035 33.0293 5.8756 31.7647 7.25341C30.7164 8.3949 30.1685 9.8847 30.2221 11.4454C30.2757 13.0061 30.9236 14.4527 32.0487 15.5182C33.9836 17.3532 37.0324 17.2464 38.8398 15.2778C39.2209 14.8627 39.1977 14.2123 38.7903 13.826C38.3809 13.4386 37.743 13.4623 37.3609 13.8763C36.3157 15.0158 34.5507 15.0795 33.4266 14.015C32.6977 13.3246 32.2772 12.3865 32.2428 11.3735C32.2085 10.3614 32.5633 9.39564 33.2436 8.65485C34.1392 7.67877 35.3553 7.11573 36.6685 7.06949C37.9755 7.01709 39.2331 7.49794 40.1934 8.41031C41.4428 9.59496 42.1636 11.2039 42.2242 12.9403C42.2839 14.6757 41.6733 16.3319 40.5159 17.5947L36.1317 22.2696C35.7465 22.6806 35.7617 23.3309 36.1661 23.7224C36.3612 23.9125 36.6118 24.006 36.8625 24.006C37.1294 24.006 37.3953 23.8991 37.5944 23.6875L41.9867 19.0043C43.5212 17.3327 44.3238 15.1535 44.244 12.8684Z" fill="white"/>
</g>
<defs>
<clipPath id="clip0">
<rect width="61" height="62" fill="white"/>
</clipPath>
</defs>
</svg>
