<svg width="55" height="19" viewBox="0 0 55 19" fill="none" xmlns="http://www.w3.org/2000/svg">
<path d="M10.1593 4.475C10.1593 5.35833 9.99261 6.26667 9.65928 7.2C9.34261 8.11667 8.91761 9.04167 8.38428 9.975C7.86761 10.9083 7.28428 11.825 6.63428 12.725C5.98428 13.6083 5.33428 14.45 4.68428 15.25L3.45928 16.325V16.425L5.05928 16.15H10.5093V18H0.559277V17.275C0.925944 16.8917 1.36761 16.4167 1.88428 15.85C2.40094 15.2833 2.93428 14.6583 3.48428 13.975C4.05094 13.275 4.60094 12.5417 5.13428 11.775C5.68428 10.9917 6.17594 10.2 6.60928 9.4C7.05928 8.6 7.41761 7.80833 7.68428 7.025C7.95094 6.24167 8.08428 5.5 8.08428 4.8C8.08428 3.98333 7.85094 3.30833 7.38428 2.775C6.91761 2.225 6.20928 1.95 5.25928 1.95C4.62594 1.95 4.00928 2.08333 3.40928 2.35C2.80928 2.6 2.29261 2.89167 1.85928 3.225L1.03428 1.8C1.61761 1.3 2.30928 0.908332 3.10928 0.624999C3.90928 0.341666 4.76761 0.2 5.68428 0.2C6.40094 0.2 7.03428 0.308333 7.58428 0.524998C8.13428 0.724999 8.60094 1.01667 8.98428 1.4C9.36761 1.78333 9.65928 2.24167 9.85928 2.775C10.0593 3.29167 10.1593 3.85833 10.1593 4.475ZM24.1323 2.35H16.8323V18H14.7573V0.499999H24.1323V2.35ZM36.5169 6.15L36.6669 4.15H36.5669L35.4919 6.2L27.0419 18H25.8169V0.499999H27.8919V12.5L27.7169 14.475H27.8169L28.9169 12.425L37.3669 0.499999H38.5919V18H36.5169V6.15ZM54.0335 17.275C53.5335 17.6583 52.9002 17.925 52.1335 18.075C51.3668 18.225 50.5502 18.3 49.6835 18.3C48.6335 18.3 47.6502 18.125 46.7335 17.775C45.8168 17.4083 45.0168 16.8583 44.3335 16.125C43.6502 15.3917 43.1085 14.4583 42.7085 13.325C42.3085 12.175 42.1085 10.8167 42.1085 9.25C42.1085 7.61667 42.3252 6.23333 42.7585 5.1C43.2085 3.95 43.7918 3.01667 44.5085 2.3C45.2418 1.56667 46.0585 1.03333 46.9585 0.699999C47.8585 0.366666 48.7752 0.2 49.7085 0.2C50.7085 0.2 51.5252 0.258333 52.1585 0.374999C52.7918 0.474999 53.3335 0.616665 53.7835 0.799999L53.2835 2.625C52.4835 2.24167 51.3418 2.05 49.8585 2.05C49.1752 2.05 48.5002 2.175 47.8335 2.425C47.1668 2.675 46.5668 3.08333 46.0335 3.65C45.5168 4.21667 45.1002 4.95833 44.7835 5.875C44.4668 6.79167 44.3085 7.91667 44.3085 9.25C44.3085 10.45 44.4585 11.5 44.7585 12.4C45.0585 13.3 45.4668 14.05 45.9835 14.65C46.5168 15.25 47.1335 15.7 47.8335 16C48.5502 16.3 49.3252 16.45 50.1585 16.45C50.9085 16.45 51.5585 16.375 52.1085 16.225C52.6752 16.075 53.1502 15.8833 53.5335 15.65L54.0335 17.275Z" fill="black"/>
</svg>
