<svg width="13" height="12" viewBox="0 0 13 12" fill="red" xmlns="http://www.w3.org/2000/svg">
<path d="M6.61107 4.06369C5.47381 4.06369 4.54572 4.93379 4.54572 5.99999C4.54572 7.0662 5.47381 7.9363 6.61107 7.9363C7.74834 7.9363 8.67643 7.0662 8.67643 5.99999C8.67643 4.93379 7.74834 4.06369 6.61107 4.06369ZM12.8056 5.99999C12.8056 5.19816 12.8133 4.40359 12.7653 3.60321C12.7173 2.67355 12.4911 1.84848 11.7659 1.16867C11.0393 0.487399 10.1608 0.276772 9.16914 0.231742C8.31387 0.186712 7.46634 0.193975 6.61262 0.193975C5.75735 0.193975 4.90983 0.186712 4.0561 0.231742C3.06449 0.276772 2.18442 0.488851 1.4593 1.16867C0.73263 1.84993 0.507966 2.67355 0.459935 3.60321C0.411903 4.40505 0.41965 5.19962 0.41965 5.99999C0.41965 6.80037 0.411903 7.5964 0.459935 8.39678C0.507966 9.32644 0.73418 10.1515 1.4593 10.8313C2.18597 11.5126 3.06449 11.7232 4.0561 11.7682C4.91138 11.8133 5.7589 11.806 6.61262 11.806C7.46789 11.806 8.31542 11.8133 9.16914 11.7682C10.1608 11.7232 11.0408 11.5111 11.7659 10.8313C12.4926 10.1501 12.7173 9.32644 12.7653 8.39678C12.8149 7.5964 12.8056 6.80183 12.8056 5.99999ZM6.61107 8.97927C4.8525 8.97927 3.43324 7.64869 3.43324 5.99999C3.43324 4.3513 4.8525 3.02072 6.61107 3.02072C8.36965 3.02072 9.7889 4.3513 9.7889 5.99999C9.7889 7.64869 8.36965 8.97927 6.61107 8.97927ZM9.91905 3.5945C9.50846 3.5945 9.17689 3.28364 9.17689 2.89871C9.17689 2.51377 9.50846 2.20291 9.91905 2.20291C10.3296 2.20291 10.6612 2.51377 10.6612 2.89871C10.6613 2.99011 10.6422 3.08064 10.605 3.16511C10.5677 3.24958 10.5131 3.32633 10.4441 3.39096C10.3752 3.45559 10.2933 3.50684 10.2032 3.54177C10.1131 3.57669 10.0166 3.59461 9.91905 3.5945Z" fill="white"/>
</svg>
