<svg width="17" height="10" viewBox="0 0 17 10" fill="none" xmlns="http://www.w3.org/2000/svg">
<path d="M16.0467 1.31865C16.1603 0.985936 16.0467 0.741943 15.5096 0.741943H13.7303C13.2776 0.741943 13.0707 0.953022 12.9571 1.18485C12.9571 1.18485 12.0524 3.13035 10.7705 4.39181C10.3567 4.75888 10.1677 4.87479 9.94213 4.87479C9.82935 4.87479 9.66546 4.75888 9.66546 4.42616V1.31865C9.66546 0.919393 9.53483 0.741943 9.15756 0.741943H6.36167C6.07932 0.741943 5.90894 0.926548 5.90894 1.10257C5.90894 1.48036 6.5499 1.56765 6.61562 2.63235V4.94205C6.61562 5.44792 6.51258 5.54023 6.2854 5.54023C5.68257 5.54023 4.21566 3.58757 3.34509 1.35228C3.17552 0.917962 3.00432 0.742659 2.54997 0.742659H0.771507C0.262795 0.742659 0.161377 0.953738 0.161377 1.18557C0.161377 1.602 0.764205 3.6627 2.96944 6.38812C4.43959 8.24919 6.50933 9.25807 8.39489 9.25807C9.52509 9.25807 9.66465 9.03411 9.66465 8.64773V7.24102C9.66465 6.7931 9.77255 6.70295 10.1304 6.70295C10.3932 6.70295 10.846 6.82029 11.9015 7.71684C13.1072 8.7801 13.3068 9.25736 13.9842 9.25736H15.7627C16.2706 9.25736 16.5246 9.0334 16.3785 8.59121C16.2187 8.15116 15.6426 7.51077 14.8783 6.75303C14.4629 6.32086 13.8423 5.85577 13.6532 5.62323C13.3895 5.32342 13.4658 5.19105 13.6532 4.92488C13.6532 4.92488 15.8211 2.2338 16.0467 1.31865Z" fill="white"/>
</svg>
