<svg width="17" height="18" viewBox="0 0 17 18" fill="none" xmlns="http://www.w3.org/2000/svg">
<g clip-path="url(#clip0)">
<path d="M14.1956 1.33496H2.70005C1.49814 1.33496 0.520264 2.31264 0.520264 3.51474V10.5497C0.520264 11.7491 1.49388 12.7253 2.69231 12.7295V15.9219L7.28016 12.7295H14.1956C15.3975 12.7295 16.3753 11.7517 16.3753 10.5497V3.51474C16.3753 2.31264 15.3975 1.33496 14.1956 1.33496ZM15.4463 10.5497C15.4463 11.2393 14.8853 11.8005 14.1956 11.8005H6.98868L3.62131 14.1438V11.8005H2.70005C2.01035 11.8005 1.44927 11.2393 1.44927 10.5497V3.51474C1.44927 2.82495 2.01035 2.26397 2.70005 2.26397H14.1956C14.8853 2.26397 15.4463 2.82495 15.4463 3.51474V10.5497Z" fill="black"/>
<path d="M4.76379 4.61743H12.1318V5.54644H4.76379V4.61743Z" fill="black"/>
<path d="M4.76379 6.59937H12.1318V7.52837H4.76379V6.59937Z" fill="black"/>
<path d="M4.76379 8.5813H12.1318V9.51031H4.76379V8.5813Z" fill="black"/>
</g>
<defs>
<clipPath id="clip0">
<rect width="16.9121" height="16.9121" fill="white" transform="translate(0 0.195312)"/>
</clipPath>
</defs>
</svg>
