<svg width="10" height="10" viewBox="0 0 10 10" fill="none" xmlns="http://www.w3.org/2000/svg">
<path d="M9.57197 0.381954C9.48018 0.32238 9.37755 0.281474 9.26995 0.261573C9.16235 0.241672 9.05188 0.243166 8.94485 0.265969C8.83782 0.288772 8.73634 0.332438 8.64619 0.394472C8.55605 0.456507 8.47901 0.535693 8.41947 0.627509L3.75003 7.82501L1.4728 5.71945C1.39246 5.64517 1.29827 5.58743 1.19562 5.54954C1.09296 5.51166 0.983845 5.49436 0.874504 5.49864C0.65368 5.50729 0.445336 5.6033 0.295304 5.76556C0.145273 5.92783 0.0658439 6.14304 0.0744914 6.36386C0.0831389 6.58469 0.179154 6.79303 0.341415 6.94306L3.33142 9.70751C3.33142 9.70751 3.41725 9.7814 3.45697 9.80723C3.54877 9.86685 3.65142 9.90779 3.75905 9.92771C3.86669 9.94764 3.97719 9.94616 4.08425 9.92335C4.19131 9.90055 4.29282 9.85687 4.38299 9.79481C4.47316 9.73275 4.55021 9.65353 4.60975 9.56168L9.81753 1.53445C9.8771 1.44266 9.91801 1.34003 9.93791 1.23243C9.95781 1.12483 9.95632 1.01436 9.93351 0.907332C9.91071 0.800306 9.86704 0.698821 9.80501 0.608675C9.74297 0.518529 9.66379 0.441488 9.57197 0.381954Z" fill="#333333"/>
</svg>
